<svg width="1024" height="1024" viewBox="0 0 1024 1024" fill="none" xmlns="http://www.w3.org/2000/svg">
<path d="M528.156 138.073C587.592 122.148 643.846 124.85 693.848 150.519L696.137 151.675C744.001 176.165 776.147 215.091 789.996 266.776C799.684 302.934 800.152 337.954 790.422 370.675C807.143 379.112 822.294 390.081 835.609 403.698C860.006 428.648 876.415 460.592 886.277 497.398C902.996 559.795 896.745 619.091 865.102 672.206C833.213 725.731 781.815 760.236 716.078 777.851L570.574 816.839C569.189 817.21 567.801 817.554 566.418 817.886L169.418 924.503C152.89 928.941 135.824 919.457 130.867 903.077C129.133 897.346 129.056 891.24 130.649 885.468L301.082 267.749C303.967 256.325 308.515 245.164 314.742 234.378C332.463 203.686 359.592 183.239 393.844 174.062L528.156 138.073Z" fill="black"/>
</svg>
