<svg width="1024" height="1024" viewBox="0 0 1024 1024" fill="none" xmlns="http://www.w3.org/2000/svg">
<path d="M560.22 778.204C534.103 785.202 509.935 782.68 487.715 770.64C466.177 757.417 451.909 737.747 444.911 711.631L340.694 322.685C334.196 298.434 337.092 275.665 349.382 254.377C361.673 233.09 379.943 219.197 404.194 212.699L538.507 176.71C590.739 162.714 636.585 165.925 676.046 186.342C715.256 205.826 740.359 236.089 751.356 277.128C763.102 320.966 758.017 359.817 736.101 393.681C793.465 406.302 830.645 444.324 847.64 507.75C861.886 560.915 856.252 608.91 830.738 651.735C805.225 694.561 763.553 723.721 705.724 739.216L560.22 778.204ZM583.394 652.031L681.33 625.79C699.985 620.791 713.875 611.071 723.001 596.629C733.06 581.938 735.216 563.866 729.468 542.413C723.719 520.96 713.283 506.262 698.158 498.318C683.034 490.375 665.678 489.027 646.091 494.275L548.155 520.517C534.164 524.266 529.043 533.136 532.792 547.127L556.785 636.668C560.533 650.659 569.403 655.78 583.394 652.031ZM519.664 414.187L596.614 393.568C613.403 389.07 624.961 379.974 631.289 366.282C637.617 352.591 639.032 339.216 635.533 326.157C632.034 313.099 624.247 302.69 612.17 294.929C599.844 286.236 585.286 284.138 568.497 288.637L491.548 309.255C477.557 313.004 472.436 321.874 476.184 335.865L493.054 398.824C496.803 412.815 505.673 417.936 519.664 414.187Z" fill="white"/>
</svg>
